<?xml version="1.0" encoding="UTF-8" standalone="no"?>
<!-- Created with Inkscape (http://www.inkscape.org/) -->

<svg
   xmlns:dc="http://purl.org/dc/elements/1.1/"
   xmlns:cc="http://creativecommons.org/ns#"
   xmlns:rdf="http://www.w3.org/1999/02/22-rdf-syntax-ns#"
   xmlns:svg="http://www.w3.org/2000/svg"
   xmlns="http://www.w3.org/2000/svg"
   xmlns:xlink="http://www.w3.org/1999/xlink"
   xmlns:sodipodi="http://sodipodi.sourceforge.net/DTD/sodipodi-0.dtd"
   xmlns:inkscape="http://www.inkscape.org/namespaces/inkscape"
   width="100mm"
   height="100mm"
   viewBox="0 0 100 100"
   version="1.1"
   id="svg8"
   sodipodi:docname="Lightning Orb.svg"
   inkscape:export-filename="C:\Users\elien.DESKTOP-RB39JCM\Desktop\Lightning Orb\Lightning Orb_Broken.png"
   inkscape:export-xdpi="100"
   inkscape:export-ydpi="100"
   inkscape:version="0.92.3 (2405546, 2018-03-11)">
  <defs
     id="defs2">
    <linearGradient
       inkscape:collect="always"
       id="linearGradient855">
      <stop
         style="stop-color:#ededed;stop-opacity:0.60000002"
         offset="0"
         id="stop851" />
      <stop
         id="stop859"
         offset="0.35946739"
         style="stop-color:#eeff55;stop-opacity:0.43921569" />
      <stop
         style="stop-color:#e9ff7d;stop-opacity:0.35686275"
         offset="0.83283389"
         id="stop861" />
      <stop
         style="stop-color:#ffffff;stop-opacity:0.27777779"
         offset="1"
         id="stop853" />
    </linearGradient>
    <linearGradient
       inkscape:collect="always"
       xlink:href="#linearGradient855"
       id="linearGradient857"
       x1="17.506153"
       y1="214.61417"
       x2="78.978142"
       y2="271.54257"
       gradientUnits="userSpaceOnUse" />
    <linearGradient
       gradientTransform="translate(-0.33408661,0.10023601)"
       inkscape:collect="always"
       xlink:href="#linearGradient885"
       id="linearGradient887"
       x1="26.726952"
       y1="272.34439"
       x2="89.936195"
       y2="293.1246"
       gradientUnits="userSpaceOnUse" />
    <linearGradient
       inkscape:collect="always"
       id="linearGradient885">
      <stop
         style="stop-color:#363636;stop-opacity:1"
         offset="0"
         id="stop881" />
      <stop
         style="stop-color:#b4b4b4;stop-opacity:1"
         offset="1"
         id="stop883" />
    </linearGradient>
  </defs>
  <sodipodi:namedview
     id="base"
     pagecolor="#ffffff"
     bordercolor="#666666"
     borderopacity="1.0"
     inkscape:pageopacity="0.0"
     inkscape:pageshadow="2"
     inkscape:zoom="1.4"
     inkscape:cx="206.72032"
     inkscape:cy="270.5057"
     inkscape:document-units="mm"
     inkscape:current-layer="layer4"
     showgrid="false"
     inkscape:pagecheckerboard="true"
     inkscape:window-width="1920"
     inkscape:window-height="1027"
     inkscape:window-x="-8"
     inkscape:window-y="-8"
     inkscape:window-maximized="1" />
  <metadata
     id="metadata5">
    <rdf:RDF>
      <cc:Work
         rdf:about="">
        <dc:format>image/svg+xml</dc:format>
        <dc:type
           rdf:resource="http://purl.org/dc/dcmitype/StillImage" />
        <dc:title></dc:title>
      </cc:Work>
    </rdf:RDF>
  </metadata>
  <g
     inkscape:label="Layer 1"
     inkscape:groupmode="layer"
     id="layer1"
     transform="translate(0,-197)"
     style="display:inline">
    <rect
       style="display:inline;fill:#363636;fill-opacity:1;stroke:#000000;stroke-width:1;stroke-miterlimit:4;stroke-dasharray:none;stroke-opacity:1"
       id="rect889"
       width="3.6081386"
       height="26.058779"
       x="46.237633"
       y="247.68877"
       ry="1.8040693" />
    <path
       style="display:inline;fill:url(#linearGradient887);fill-opacity:1;stroke:#000000;stroke-width:0;stroke-linecap:butt;stroke-linejoin:miter;stroke-miterlimit:4;stroke-dasharray:none;stroke-opacity:1"
       d="M 11.158502,293.22482 H 89.602109 L 68.821904,272.44462 H 26.392864 Z"
       id="path815"
       inkscape:connector-curvature="0" />
    <circle
       style="display:inline;fill:#000000;fill-opacity:1;stroke:#ffffff;stroke-width:0;stroke-miterlimit:4;stroke-dasharray:none;stroke-opacity:1"
       id="path821"
       cx="48.097469"
       cy="244.7448"
       r="6.283854" />
  </g>
  <g
     inkscape:groupmode="layer"
     id="layer3"
     inkscape:label="Layer 3">
    <path
       style="display:inline;fill:none;stroke:#dfe446;stroke-width:1;stroke-linecap:butt;stroke-linejoin:miter;stroke-miterlimit:4;stroke-dasharray:none;stroke-opacity:0.5"
       d="m 58.879473,78.319562 2.841812,-13.178296 -12.67911,-1.703583 c 0,0 4.91207,-1.016805 5.265055,-1.893335 0.352984,-0.87654 0.316413,-1.746959 -1.75927,-2.562483 -2.075674,-0.815527 -1.607027,-1.625103 -1.607027,-1.625103"
       id="path823"
       inkscape:connector-curvature="0"
       inkscape:export-xdpi="100"
       inkscape:export-ydpi="100" />
    <path
       style="display:inline;fill:none;stroke:#dfe446;stroke-width:1;stroke-linecap:butt;stroke-linejoin:miter;stroke-miterlimit:4;stroke-dasharray:none;stroke-opacity:0.5"
       d="m 85.517113,48.405617 c 0,0 -2.173365,4.53571 -3.779764,3.96875 -1.606399,-0.56697 -6.3311,-6.23661 -7.465028,-5.76414 -1.13393,0.47247 -4.063246,3.59077 -5.480656,3.49628 -1.41741,-0.0945 -6.52009,-4.15774 -6.52009,-4.15774 0,0 -1.606399,-0.85045 -2.267857,-0.37798"
       id="path825"
       inkscape:connector-curvature="0"
       inkscape:export-xdpi="100"
       inkscape:export-ydpi="100" />
    <path
       style="display:inline;fill:none;stroke:#dfe446;stroke-width:1;stroke-linecap:butt;stroke-linejoin:miter;stroke-miterlimit:4;stroke-dasharray:none;stroke-opacity:0.5"
       d="m 67.327009,13.53795 c 0,2.17336 6.80357,4.44122 0,5.10268 -6.803572,0.66146 -10.961309,-3.49628 -10.110864,0.37797 0.850448,3.87426 3.307292,6.4256 1.889882,7.65402 -1.41741,1.22842 -3.96875,0.75595 -5.10268,2.17336 -1.133928,1.41742 -0.566963,5.10268 -0.566963,5.10268"
       id="path827"
       inkscape:connector-curvature="0"
       inkscape:export-xdpi="100"
       inkscape:export-ydpi="100" />
    <path
       style="display:inline;fill:none;stroke:#dfe446;stroke-width:1;stroke-linecap:butt;stroke-linejoin:miter;stroke-miterlimit:4;stroke-dasharray:none;stroke-opacity:0.5"
       d="m 24.560481,17.74699 c 0.472472,0 4.157739,-2.55134 4.157739,1.41741 0,3.96875 -3.685267,7.74851 -0.283482,9.63839 3.401785,1.88989 5.480653,2.64584 8.031993,2.45685 2.55134,-0.18899 6.142113,-2.64583 5.386161,0 -0.755953,2.64583 -1.133929,3.68527 -1.133929,3.68527"
       id="path829"
       inkscape:connector-curvature="0"
       inkscape:export-xdpi="100"
       inkscape:export-ydpi="100" />
    <path
       style="display:inline;fill:none;stroke:#dfe446;stroke-width:1;stroke-linecap:butt;stroke-linejoin:miter;stroke-miterlimit:4;stroke-dasharray:none;stroke-opacity:0.5"
       d="m 16.725446,61.16295 c 0.944941,-0.56696 10.299853,-1.41741 10.48884,-2.07886 0.188989,-0.66146 -2.83482,-4.63021 -0.188987,-7.65402 2.645832,-3.02381 3.779761,-4.15774 7.559523,-3.77976 3.779762,0.37797 2.267857,2.17336 3.96875,-1.22843"
       id="path831"
       inkscape:connector-curvature="0"
       inkscape:export-xdpi="100"
       inkscape:export-ydpi="100" />
    <path
       style="display:inline;fill:none;stroke:#dfe446;stroke-width:1;stroke-linecap:butt;stroke-linejoin:miter;stroke-miterlimit:4;stroke-dasharray:none;stroke-opacity:0.5"
       d="m 12.189732,35.906026 c 0,0 5.102678,-0.94494 7.276042,0 2.173363,0.94494 0.283483,5.95312 4.91369,3.77976 4.630209,-2.17336 6.709078,-2.55134 7.654018,-2.55134 0.944941,0 3.685268,2.74033 3.685268,2.74033"
       id="path833"
       inkscape:connector-curvature="0"
       inkscape:export-xdpi="100"
       inkscape:export-ydpi="100" />
    <path
       style="display:inline;fill:none;stroke:#dfe446;stroke-width:1;stroke-linecap:butt;stroke-linejoin:miter;stroke-miterlimit:4;stroke-dasharray:none;stroke-opacity:0.5"
       d="m 49.607794,8.9077399 c -0.09449,1.2284201 5.38616,2.1733601 0.09449,7.1815401 -5.291666,5.00819 -8.409969,5.66965 -6.614583,7.27604 1.795388,1.6064 3.874257,3.87426 3.874257,3.87426 0,0 0.94494,0.0945 0.566965,0.37798 -0.377976,0.28348 -3.496281,1.98437 -3.496281,1.98437"
       id="path835"
       inkscape:connector-curvature="0"
       inkscape:export-xdpi="100"
       inkscape:export-ydpi="100" />
    <path
       style="display:inline;fill:none;stroke:#dfe446;stroke-width:1;stroke-linecap:butt;stroke-linejoin:miter;stroke-miterlimit:4;stroke-dasharray:none;stroke-opacity:0.5"
       d="m 86.273065,31.477753 c -0.566965,0.85045 -3.023809,3.2128 -4.346726,2.74032 -1.322916,-0.47246 -1.795388,-4.25223 -5.291666,-1.60639 -3.496281,2.64583 -3.307292,9.16592 -8.126489,6.61458 -4.819195,-2.55134 -7.654018,-4.25223 -7.654018,-4.25223"
       id="path837"
       inkscape:connector-curvature="0"
       inkscape:export-xdpi="100"
       inkscape:export-ydpi="100" />
    <path
       style="display:inline;fill:none;stroke:#dfe446;stroke-width:1;stroke-linecap:butt;stroke-linejoin:miter;stroke-miterlimit:4;stroke-dasharray:none;stroke-opacity:0.5"
       d="m 72.672638,70.92432 c -1.133927,-0.56696 -6.3311,-2.55134 -5.764135,-5.38616 0.566962,-2.83482 3.212795,-4.91369 0.850444,-5.38616 -2.36235,-0.47247 -5.291666,-1.03943 -5.858629,-2.36235 -0.566965,-1.32292 -1.417412,-2.45684 -1.417412,-2.45684"
       id="path839"
       inkscape:connector-curvature="0"
       inkscape:export-xdpi="100"
       inkscape:export-ydpi="100" />
    <path
       style="display:inline;fill:none;stroke:#dfe446;stroke-width:1;stroke-linecap:butt;stroke-linejoin:miter;stroke-miterlimit:4;stroke-dasharray:none;stroke-opacity:0.5"
       d="m 30.238094,75.846335 c 0,0 5.197173,-2.17337 5.386162,-3.59078 0.188987,-1.41741 -1.889882,-4.15774 0.188987,-6.04762 2.078871,-1.88988 3.779763,-0.85044 4.157739,-3.02381 0.377976,-2.17336 -2.282722,-6.22927 1.228423,-5.76413"
       id="path841"
       inkscape:connector-curvature="0"
       inkscape:export-xdpi="100"
       inkscape:export-ydpi="100" />
  </g>
  <g
     inkscape:groupmode="layer"
     id="layer2"
     inkscape:label="Layer 2"
     style="display:inline">
    <circle
       style="fill:url(#linearGradient857);fill-opacity:1;stroke:#ededed;stroke-width:0;stroke-miterlimit:4;stroke-dasharray:none;stroke-opacity:0.6"
       id="path817"
       cx="48.977139"
       cy="242.00929"
       r="42.161766"
       transform="translate(0,-197)" />
  </g>
  <g
     inkscape:groupmode="layer"
     id="layer4"
     inkscape:label="Layer 4">
    <path
       style="fill:none;stroke:#000000;stroke-width:0.26458332px;stroke-linecap:butt;stroke-linejoin:miter;stroke-opacity:1"
       d="m 25.123335,10.197439 c 0,0 -2.138156,8.285355 -1.069078,9.755338 1.069078,1.469982 4.276313,4.276312 4.81085,6.147199 0.534541,1.870887 0.668176,6.414468 1.202714,7.082642 0.53454,0.668173 6.414468,5.34539 6.414468,5.34539 l 5.612662,-3.207234"
       id="path960"
       inkscape:connector-curvature="0" />
    <path
       style="fill:none;stroke:#000000;stroke-width:0.26458332px;stroke-linecap:butt;stroke-linejoin:miter;stroke-opacity:1"
       d="m 82.987189,20.220047 -6.815373,5.746294 c 0,0 -0.05654,10.20261 -0.05654,10.20261 0,0 -4.754314,1.958152 -4.754314,3.561771 0,1.603616 -6.681737,6.013564 -6.681737,6.013564 0,0 -0.53454,4.543583 -0.53454,5.746294"
       id="path962"
       inkscape:connector-curvature="0" />
    <path
       style="fill:none;stroke:#000000;stroke-width:0.26458332px;stroke-linecap:butt;stroke-linejoin:miter;stroke-opacity:1"
       d="m 27.695805,23.828185 2.80633,-1.703843 1.570209,2.639286 2.873148,-0.233861 6.58151,-0.167043"
       id="path966"
       inkscape:connector-curvature="0" />
    <path
       style="fill:none;stroke:#000000;stroke-width:0.26458332px;stroke-linecap:butt;stroke-linejoin:miter;stroke-opacity:1"
       d="m 33.609142,36.189401 c 0,0 -2.80633,2.238383 -2.605876,2.472243 0.200451,0.23386 2.338607,1.00226 1.971111,1.637024 -0.367495,0.634768 -1.637024,2.004523 -1.236122,3.073602 0.400904,1.069078 2.204974,3.30746 2.238383,3.741771"
       id="path968"
       inkscape:connector-curvature="0" />
    <path
       style="fill:none;stroke:#000000;stroke-width:0.26458332px;stroke-linecap:butt;stroke-linejoin:miter;stroke-opacity:1"
       d="m 24.388344,13.73876 c 0,0 3.441094,-1.870886 3.57473,-1.603617 0.133636,0.26727 1.102487,1.436574 1.670434,1.169304 0.567949,-0.267269 2.839738,-0.935443 3.54132,-1.035669"
       id="path970"
       inkscape:connector-curvature="0" />
    <path
       style="fill:none;stroke:#000000;stroke-width:0.26458332px;stroke-linecap:butt;stroke-linejoin:miter;stroke-opacity:1"
       d="m 76.114954,30.121653 c 0,0 -0.944941,1.795386 -2.031622,2.173362 -1.08668,0.377976 -2.409597,-0.04725 -2.787573,-0.14174 -0.377978,-0.0945 -2.362353,0.614212 -2.740329,0.992187"
       id="path972"
       inkscape:connector-curvature="0" />
    <path
       style="fill:none;stroke:#000000;stroke-width:0.26458332px;stroke-linecap:butt;stroke-linejoin:miter;stroke-opacity:1"
       d="m 69.783853,41.886161 c 0,0 4.960938,1.606399 3.732514,3.212798 -1.22842,1.606399 -0.566962,2.882069 -0.236233,3.921503"
       id="path974"
       inkscape:connector-curvature="0" />
    <path
       style="fill:none;stroke:#000000;stroke-width:0.26458332px;stroke-linecap:butt;stroke-linejoin:miter;stroke-opacity:1"
       d="m 78.619047,23.885045 c 0,0 0.04725,-2.456845 -1.464659,-2.173363 -1.511903,0.283482 -3.779761,0.661458 -4.346726,0.330729 -0.566965,-0.330729 -2.173361,-0.47247 -2.834819,-0.425223"
       id="path976"
       inkscape:connector-curvature="0" />
    <path
       style="fill:none;stroke:#000000;stroke-width:0.26458332px;stroke-linecap:butt;stroke-linejoin:miter;stroke-opacity:1"
       d="m 20.127232,75.431549 c 0.47247,-0.283483 3.590774,-2.078871 3.590774,-2.078871 0,0 0.341531,0.782097 2.674858,2.091941 2.333326,1.309846 12.255201,-0.107566 12.255201,-0.107566 0,0 5.349346,-5.065872 6.265447,-3.241641 0.916102,1.824231 4.128897,8.249825 4.128897,8.249825"
       id="path978"
       inkscape:connector-curvature="0" />
    <path
       style="fill:none;stroke:#000000;stroke-width:0.26458332px;stroke-linecap:butt;stroke-linejoin:miter;stroke-opacity:1"
       d="m 35.747298,75.878925 c 0,0 -1.269529,2.138156 -0.133633,2.739514 1.135896,0.601355 3.073598,1.336347 3.608139,1.804067"
       id="path980"
       inkscape:connector-curvature="0" />
    <path
       style="fill:none;stroke:#000000;stroke-width:0.26458332px;stroke-linecap:butt;stroke-linejoin:miter;stroke-opacity:1"
       d="M 44.913512,72.095412 44.412201,68.39174 c 0,0 1.795388,0.614212 1.795388,-0.14174 0,-0.755951 -0.897694,-2.834822 -0.850447,-2.976562"
       id="path982"
       inkscape:connector-curvature="0" />
  </g>
</svg>
