<?xml version="1.0" encoding="UTF-8" standalone="no"?>
<!-- Created with Inkscape (http://www.inkscape.org/) -->

<svg
   xmlns:dc="http://purl.org/dc/elements/1.1/"
   xmlns:cc="http://creativecommons.org/ns#"
   xmlns:rdf="http://www.w3.org/1999/02/22-rdf-syntax-ns#"
   xmlns:svg="http://www.w3.org/2000/svg"
   xmlns="http://www.w3.org/2000/svg"
   xmlns:xlink="http://www.w3.org/1999/xlink"
   xmlns:sodipodi="http://sodipodi.sourceforge.net/DTD/sodipodi-0.dtd"
   xmlns:inkscape="http://www.inkscape.org/namespaces/inkscape"
   width="100mm"
   height="100mm"
   viewBox="0 0 100 100"
   version="1.1"
   id="svg8"
   inkscape:version="0.92.2 (5c3e80d, 2017-08-06)"
   sodipodi:docname="Ice Cube.svg"
   inkscape:export-filename="C:\Users\elien.DESKTOP-RB39JCM\Desktop\Unlockable Shapes\Ice Cube.png"
   inkscape:export-xdpi="100"
   inkscape:export-ydpi="100">
  <defs
     id="defs2">
    <linearGradient
       inkscape:collect="always"
       id="linearGradient821">
      <stop
         style="stop-color:#fcfeff;stop-opacity:0.72222221"
         offset="0"
         id="stop817" />
      <stop
         style="stop-color:#8eddff;stop-opacity:0.87373739"
         offset="1"
         id="stop819" />
    </linearGradient>
    <radialGradient
       inkscape:collect="always"
       xlink:href="#linearGradient821"
       id="radialGradient823"
       cx="48.602675"
       cy="244.59782"
       fx="48.602675"
       fy="244.59782"
       r="43.272222"
       gradientTransform="matrix(1,0,0,0.9968503,0,0.77040876)"
       gradientUnits="userSpaceOnUse" />
  </defs>
  <sodipodi:namedview
     id="base"
     pagecolor="#ffffff"
     bordercolor="#666666"
     borderopacity="1.0"
     inkscape:pageopacity="0.0"
     inkscape:pageshadow="2"
     inkscape:zoom="1.979899"
     inkscape:cx="285.29091"
     inkscape:cy="175.0184"
     inkscape:document-units="mm"
     inkscape:current-layer="layer1"
     showgrid="false"
     inkscape:pagecheckerboard="true"
     inkscape:window-width="1920"
     inkscape:window-height="1027"
     inkscape:window-x="-8"
     inkscape:window-y="-8"
     inkscape:window-maximized="1" />
  <metadata
     id="metadata5">
    <rdf:RDF>
      <cc:Work
         rdf:about="">
        <dc:format>image/svg+xml</dc:format>
        <dc:type
           rdf:resource="http://purl.org/dc/dcmitype/StillImage" />
        <dc:title></dc:title>
      </cc:Work>
    </rdf:RDF>
  </metadata>
  <g
     inkscape:label="Layer 1"
     inkscape:groupmode="layer"
     id="layer1"
     transform="translate(0,-197)">
    <path
       style="fill:url(#radialGradient823);stroke:#6ff7ff;stroke-width:5;stroke-linecap:butt;stroke-linejoin:miter;stroke-opacity:0.39898989;fill-opacity:1;stroke-miterlimit:4;stroke-dasharray:none"
       d="m 83.788995,205.19292 c 1.870887,0.13363 7.483546,0.13363 7.483546,1.73725 0,1.60362 -2.00452,2.53906 -1.336346,4.40995 0.668173,1.87088 2.138156,5.74629 1.737251,7.88445 -0.400905,2.13815 -2.939963,7.48354 -2.271789,9.08716 0.668173,1.60362 2.806329,9.08717 1.870884,12.82894 -0.935442,3.74177 -2.939962,8.41899 -2.405425,11.62622 0.534541,3.20724 3.207235,12.56167 2.672697,13.76438 -0.53454,1.20272 -4.276312,3.0736 -3.474506,6.41447 0.801809,3.34087 2.271792,6.94901 1.870888,8.28536 -0.400905,1.33634 -1.069079,2.67269 -3.608139,4.00904 -2.539061,1.33635 -3.608139,3.74177 -6.681737,1.33635 -3.073601,-2.40543 -7.483547,-6.01357 -10.690781,-5.47903 -3.207234,0.53454 -5.078121,0.40091 -9.2208,2.53906 -4.142677,2.13816 -8.285353,1.73725 -10.690781,1.46999 -2.405425,-0.26727 -3.073598,-2.80633 -10.824416,-0.93545 -7.750815,1.87089 -9.087162,1.73725 -13.898014,2.00452 -4.810852,0.26727 -9.755338,0.53454 -11.759859,0.66818 -2.004522,0.13363 -5.0781214,-1.33635 -4.9444864,-2.13816 0.1336347,-0.80181 0.2672693,-3.60814 1.069078,-5.34539 0.8018084,-1.73725 0,-5.87993 -0.534539,-7.48355 -0.534539,-1.60361 -1.4699824,-4.81085 -0.8018087,-7.48354 0.6681737,-2.6727 1.2027128,-6.54811 0.1336347,-10.82442 -1.069078,-4.27631 -2.6726951,-7.61718 -1.7372518,-9.6217 0.9354434,-2.00452 1.8708868,-8.15172 2.1381561,-10.82442 0.2672697,-2.67269 -0.534539,-5.21175 -0.534539,-6.94901 0,-1.73725 -1.2027127,-4.54358 0.8018087,-7.21627 2.0045214,-2.6727 3.0735994,-4.54358 2.5390604,-5.87993 -0.534539,-1.33635 -4.1426778,-3.47451 -3.3408691,-4.40995 0.8018087,-0.93544 2.0045214,-2.13815 3.7417731,-2.67269 1.737252,-0.53454 2.672695,-0.93545 5.078121,-0.80181 2.405426,0.13363 3.340869,1.20271 7.483547,0.80181 4.142676,-0.40091 3.875407,-2.00452 7.617182,-2.40543 3.741772,-0.4009 2.405425,-0.93544 6.949006,-0.13363 4.543584,0.8018 4.543584,1.87088 11.358957,0.53454 6.815372,-1.33635 6.147199,-3.60814 10.824416,-1.60362 4.677214,2.00452 8.15172,3.4745 10.423509,2.93996 2.271792,-0.53454 2.672696,-0.93544 6.147199,-1.46998 3.474506,-0.53454 6.815373,1.33635 6.815373,1.33635 z"
       id="path815"
       inkscape:connector-curvature="0" />
  </g>
</svg>
